<?xml version="1.0" encoding="UTF-8" standalone="no" ?>
<!--
Title: einstein
Creator: Logo2Svg 1.1; Copyright 2001, Vladimir Batagelj
CreationDate: Fri May 22 03:49:16 2026
-->
<svg xmlns="http://www.w3.org/2000/svg" xmlns:xlink="http://www.w3.org/1999/xlink" preserveAspectRatio="xMidYMid" width="600" height="600" style="fill:none;stroke-linecap:round;stroke-linejoin:round;">
<title> picture1 </title>
<path d="M300.00 300.00"/>
<rect x="0" y="0" width="600.00" height="600.00" style="fill:#ffffff;stroke:#ffffff;"/>
<path d="M300.00 300.00"/>
<rect x="0" y="0" width="600.00" height="600.00" style="fill:#ffff14;stroke:#ffff14;"/>
<path d="M300.00 300.00"/>
<path d="M300.00 300.00"/>
<path d="M305.00 290.00"/>
<path d="M328.09 290.00"/>
<path d="M328.09 290.00"/>
<path d="M328.09 290.00"/>
<path d="M328.09 290.00"/>
<path d="M328.09 290.00 L351.19 290.00 L362.74 310.00 L328.09 330.00 L293.45 310.00 L281.91 330.00 L235.72 330.00 L224.17 310.00 L258.81 290.00 L258.81 250.00 L281.91 250.00 L293.45 230.00 L328.09 250.00 L328.09 290.00" style="stroke:#0000ff;stroke-width:3;fill:#ff9577"/>
<path d="M328.09 290.00"/>
<path d="M305.00 290.00"/>
<path d="M390.00 180.00"/>
<path d="M413.09 180.00"/>
<path d="M413.09 180.00"/>
<path d="M413.09 180.00"/>
<path d="M413.09 180.00"/>
<path d="M413.09 180.00 L436.19 180.00 L447.74 200.00 L413.09 220.00 L378.45 200.00 L366.91 220.00 L320.72 220.00 L309.17 200.00 L343.81 180.00 L343.81 140.00 L366.91 140.00 L378.45 120.00 L413.09 140.00 L413.09 180.00" style="stroke:#ff0000;stroke-width:3;fill:#64a240"/>
<path d="M413.09 180.00"/>
<path d="M390.00 180.00"/>
<path d="M210.00 180.00"/>
<path d="M186.91 180.00"/>
<path d="M186.91 180.00"/>
<path d="M186.91 180.00"/>
<path d="M186.91 180.00"/>
<path d="M186.91 180.00 L163.81 180.00 L152.26 200.00 L186.91 220.00 L221.55 200.00 L233.09 220.00 L279.28 220.00 L290.83 200.00 L256.19 180.00 L256.19 140.00 L233.09 140.00 L221.55 120.00 L186.91 140.00 L186.91 180.00" style="stroke:#00ff00;stroke-width:3;fill:#ffffff"/>
<path d="M186.91 180.00"/>
<path d="M210.00 180.00"/>
<path d="M210.00 420.00"/>
<path d="M198.45 440.00"/>
<path d="M198.45 440.00"/>
<path d="M198.45 440.00"/>
<path d="M198.45 440.00"/>
<path d="M198.45 440.00 L186.91 460.00 L163.81 460.00 L163.81 420.00 L198.45 400.00 L186.91 380.00 L210.00 340.00 L233.09 340.00 L233.09 380.00 L267.74 400.00 L256.19 420.00 L267.74 440.00 L233.09 460.00 L198.45 440.00" style="stroke:#ff00ff;stroke-width:3;fill:#9071d0"/>
<path d="M198.45 440.00"/>
<path d="M210.00 420.00"/>
</svg>
